<svg xmlns="http://www.w3.org/2000/svg" xmlns:xlink="http://www.w3.org/1999/xlink" aria-hidden="true" role="img" class="iconify iconify--logos" width="31.88" height="32" preserveAspectRatio="xMidYMid meet" viewBox="0 0 256 257"><defs><linearGradient id="IconifyId1813088fe1fbc01fb466" x1="-.828%" x2="57.636%" y1="7.652%" y2="78.411%"><stop offset="0%" stop-color="#FF00FF"></stop><stop offset="100%" stop-color="#FF0000"></stop></linearGradient><linearGradient id="IconifyId1813088fe1fbc01fb467" x1="43.376%" x2="50.316%" y1="2.242%" y2="89.03%"><stop offset="0%" stop-color="#FFEA00"></stop><stop offset="8.333%" stop-color="#FFEA00"></stop><stop offset="100%" stop-color="#FF0000"></stop></linearGradient></defs><path fill="url(#IconifyId1813088fe1fbc01fb466)" d="M128.001 0C110.36 0 96.725 13.533 96.725 30.267c0 13.745 9.661 25.463 22.624 28.77c.922.057 1.822.057 2.734.057c17.991 0 32.656-14.634 32.656-32.656C154.729 13.533 141.15 0 128.001 0Z" transform="translate(0 8.91)"></path><path fill="url(#IconifyId1813088fe1fbc01fb467)" d="M96.725 47.646c-19.676 0-35.654-15.978-35.654-35.654C61.07 13.533 74.609 0 92.25 0c19.676 0 35.654 15.978 35.654 35.654c0 19.676-15.978 35.654-35.654 35.654Zm0-56.922c-11.702 0-21.268 9.565-21.268 21.267c0 11.703 9.566 21.268 21.268 21.268c11.702 0 21.268-9.565 21.268-21.268c0-11.702-9.566-21.267-21.268-21.267Z" transform="translate(0 8.91)"></path><path fill="#000" d="M153.706 204.293c-5.813 0-11.233 1.24-15.906 3.473l-77.426-44.734c.675-2.16 1.038-4.455 1.038-6.832c0-2.377-.363-4.673-1.038-6.832l77.426-44.734c4.673 2.232 10.093 3.472 15.906 3.472c20.633 0 37.341-16.708 37.341-37.341c0-20.633-16.708-37.341-37.341-37.341c-20.632 0-37.341 16.708-37.341 37.341c0 2.832.327 5.597.943 8.273l-76.95 44.449c-4.944-2.699-10.623-4.246-16.681-4.246c-20.632 0-37.341 16.708-37.341 37.341s16.709 37.341 37.341 37.341c6.058 0 11.737-1.547 16.681-4.246l76.95 44.449c-.616 2.676-.943 5.441-.943 8.273c0 20.633 16.709 37.341 37.341 37.341c20.633 0 37.341-16.708 37.341-37.341c0-20.633-16.708-37.341-37.341-37.341Z"></path></svg>